<?xml version="1.0" standalone="no"?>
<!DOCTYPE svg PUBLIC "-//W3C//DTD SVG 20010904//EN"
 "http://www.w3.org/TR/2001/REC-SVG-20010904/DTD/svg10.dtd">
<svg version="1.0" xmlns="http://www.w3.org/2000/svg"
 width="670.000000pt" height="670.000000pt" viewBox="0 0 670.000000 670.000000"
 preserveAspectRatio="xMidYMid meet">
<metadata>
Created by potrace 1.14, written by Peter Selinger 2001-2017
</metadata>
<g transform="translate(0.000000,670.000000) scale(0.100000,-0.100000)"
fill="#000000" stroke="none">
<path d="M5050 3761 l-85 -27 -2 -64 c-1 -36 -2 -73 -2 -82 -1 -15 -11 -18
-71 -18 l-70 0 0 -100 0 -100 70 0 c66 0 70 -1 70 -22 1 -13 1 -96 2 -186 1
-173 8 -235 34 -292 19 -43 74 -86 128 -101 46 -13 156 -18 200 -9 l30 6 -1
84 c-1 47 -2 88 -2 93 -1 4 -30 7 -65 7 -48 0 -70 5 -87 19 -23 19 -24 23 -27
210 l-3 190 92 3 93 3 1 85 c0 47 -1 91 -3 98 -3 8 -31 12 -93 12 l-89 0 0
110 c0 128 9 122 -120 81z"/>
<path d="M880 3586 c0 -2 11 -11 25 -20 14 -9 25 -13 25 -8 0 5 -11 14 -25 20
-14 6 -25 10 -25 8z"/>
<path d="M945 3572 c9 -30 -16 -38 -50 -16 -25 16 -26 16 -41 -2 -14 -17 -15
-18 -10 -1 4 11 2 16 -5 12 -6 -4 -8 -13 -5 -21 3 -7 1 -16 -4 -19 -6 -4 -10
-11 -10 -16 0 -6 12 3 26 20 25 30 26 31 53 15 26 -15 30 -15 54 1 15 9 27 25
26 34 0 12 -2 12 -8 -4 -8 -19 -8 -19 -20 0 -11 19 -12 19 -6 -3z"/>
<path d="M991 3583 c4 -22 -4 -35 -32 -52 -18 -11 -26 -22 -20 -25 6 -4 11 -2
11 5 0 18 13 1 17 -21 3 -22 -12 -27 -20 -7 -4 9 -6 9 -6 0 -2 -22 20 -25 41
-6 21 18 21 18 15 -2 -6 -16 -4 -15 12 5 18 22 18 25 3 36 -10 7 -19 10 -22 7
-3 -3 1 -8 8 -10 18 -7 15 -19 -6 -20 -21 -2 -27 31 -8 46 10 8 17 7 26 -4 7
-8 17 -15 23 -15 6 0 2 7 -10 15 -12 9 -20 22 -17 29 3 8 0 17 -6 21 -6 3 -10
3 -9 -2z"/>
<path d="M1774 3570 c-176 -62 -283 -213 -285 -401 -2 -245 180 -429 425 -429
146 0 290 79 359 197 5 7 -25 30 -84 63 -80 45 -93 50 -101 36 -59 -105 -247
-119 -335 -24 -78 83 -71 242 13 320 82 75 224 69 298 -12 l36 -40 32 19 c67
37 138 83 138 88 0 3 -9 20 -19 37 -29 47 -85 92 -159 128 -61 30 -75 33 -167
35 -74 1 -113 -3 -151 -17z"/>
<path d="M2757 3569 c-60 -20 -96 -46 -122 -87 -11 -17 -22 -31 -25 -32 -3 0
-6 26 -5 58 l0 57 -105 0 -105 0 0 -400 0 -400 105 -3 105 -3 0 208 c-1 114 3
224 8 243 21 81 96 137 191 142 l46 3 0 117 c0 133 4 130 -93 97z"/>
<path d="M3195 3574 c-56 -20 -125 -56 -125 -66 0 -4 -4 -8 -10 -8 -16 0 -77
-71 -106 -123 -68 -124 -67 -295 2 -428 41 -80 164 -175 249 -193 17 -4 41 -9
55 -11 79 -17 210 -1 285 34 46 21 145 107 145 125 0 6 -35 32 -78 57 l-78 46
-35 -29 c-102 -85 -300 -56 -357 52 l-23 45 305 3 305 2 5 43 c23 175 -74 355
-234 431 -58 28 -75 31 -165 32 -62 1 -115 -4 -140 -12z m214 -186 c43 -13 94
-65 108 -112 l11 -36 -204 0 c-135 0 -204 4 -204 10 0 25 42 90 72 111 61 44
132 53 217 27z"/>
<path d="M4115 3575 c-127 -46 -223 -148 -261 -277 -31 -103 -19 -250 27 -340
30 -59 134 -159 194 -188 38 -18 71 -24 138 -26 104 -4 177 18 238 73 l39 35
0 -46 0 -46 105 0 105 0 0 405 0 405 -105 0 -105 0 0 -46 0 -46 -42 36 c-62
53 -135 77 -227 75 -42 -2 -89 -8 -106 -14z m251 -204 c130 -59 166 -245 69
-358 -65 -77 -175 -97 -275 -50 -45 21 -96 85 -107 134 -28 120 16 225 112
273 53 25 146 26 201 1z"/>
<path d="M5720 3570 c-74 -27 -107 -47 -160 -101 -81 -81 -120 -175 -121 -294
-1 -131 38 -231 121 -314 55 -53 105 -84 167 -100 186 -49 348 -16 458 94 25
25 45 49 45 53 0 4 -38 28 -83 53 l-82 47 -25 -24 c-39 -36 -93 -54 -165 -54
-71 0 -126 18 -163 53 -25 23 -52 68 -52 87 0 7 99 10 305 10 l305 0 1 43 c4
153 -31 256 -119 345 -56 58 -103 87 -172 108 -65 19 -198 16 -260 -6z m234
-187 c45 -22 76 -53 92 -92 8 -18 14 -37 14 -42 0 -5 -92 -9 -205 -9 l-205 0
15 38 c9 20 31 52 49 71 56 56 166 71 240 34z"/>
<path d="M438 3571 c7 -4 12 -12 11 -17 -3 -20 2 -34 12 -34 8 0 7 6 -2 17
-12 15 -12 16 5 9 19 -7 19 -6 1 14 -10 11 -23 20 -29 20 -6 0 -5 -4 2 -9z"/>
<path d="M475 3570 c3 -5 8 -10 11 -10 2 0 4 5 4 10 0 6 -5 10 -11 10 -5 0 -7
-4 -4 -10z"/>
<path d="M1060 3565 c-10 -12 -16 -13 -26 -4 -10 8 -14 8 -14 0 0 -11 13 -15
39 -11 13 1 13 -1 2 -14 -9 -11 -10 -16 -2 -16 11 0 15 12 12 40 -1 10 5 8 18
-7 20 -24 41 -30 41 -13 0 6 -6 9 -12 8 -7 -2 -11 4 -10 12 2 8 0 12 -4 8 -4
-4 -13 -3 -19 2 -9 7 -16 6 -25 -5z"/>
<path d="M120 3560 c-12 -8 -11 -10 5 -10 19 -1 19 -1 3 -14 -10 -7 -18 -17
-18 -21 0 -4 7 -2 16 5 12 11 18 10 31 -3 9 -9 13 -20 9 -24 -4 -4 -11 -1 -16
7 -5 8 -11 12 -14 10 -2 -3 2 -14 10 -25 13 -17 16 -18 24 -5 13 20 12 26 -3
42 -7 7 -18 21 -23 30 -7 12 -14 14 -24 8z"/>
<path d="M157 3553 c3 -7 6 -13 8 -13 2 0 5 6 8 13 3 8 -1 14 -8 14 -7 0 -11
-6 -8 -14z"/>
<path d="M197 3553 c3 -7 6 -13 8 -13 2 0 5 6 8 13 3 8 -1 14 -8 14 -7 0 -11
-6 -8 -14z"/>
<path d="M395 3559 c-17 -6 -17 -8 -2 -8 19 -1 23 -16 6 -26 -6 -4 -8 -13 -5
-21 3 -8 -1 -17 -9 -20 -8 -4 -12 -10 -9 -15 3 -5 -2 -9 -11 -9 -9 0 -13 5 -9
11 4 8 1 8 -14 0 -12 -6 -19 -17 -16 -24 6 -17 -32 -19 -45 -3 -8 10 -6 18 9
31 21 19 28 7 8 -13 -7 -7 -9 -12 -5 -12 3 0 17 11 31 25 16 16 32 23 43 19
17 -5 17 -5 0 6 -10 7 -21 9 -24 6 -4 -3 -13 0 -22 7 -14 11 -15 10 -1 -7 14
-18 13 -19 -1 -14 -11 4 -25 -2 -38 -16 -19 -20 -20 -24 -6 -36 15 -13 12 -30
-6 -30 -6 0 -7 5 -4 10 3 6 -1 13 -9 16 -9 3 -13 10 -10 15 3 5 -2 6 -10 3 -9
-3 -16 -1 -16 5 0 6 5 11 11 11 5 0 7 5 3 11 -12 19 -27 -18 -15 -38 5 -10 12
-17 15 -15 12 5 26 2 25 -5 -3 -20 2 -34 10 -29 5 3 12 -1 15 -10 9 -24 7 -27
-9 -14 -13 11 -14 10 -9 -4 4 -9 12 -15 18 -13 11 4 12 18 5 46 -2 7 2 16 9
18 7 3 10 -1 6 -10 -3 -8 -1 -18 5 -22 6 -3 9 0 5 8 -3 8 3 20 12 28 13 11 18
11 21 2 3 -7 10 -13 16 -13 6 0 1 10 -11 23 l-22 23 40 0 c24 -1 39 -5 36 -11
-2 -6 5 -11 15 -11 14 0 16 3 6 15 -10 11 -9 13 3 9 8 -2 23 5 32 18 21 25 22
34 7 34 -5 0 -7 -4 -4 -10 3 -5 2 -10 -3 -10 -5 0 -13 10 -19 22 -8 19 -10 20
-16 4 -4 -9 -3 -15 2 -12 8 5 25 -23 19 -30 -2 -1 -16 -5 -31 -8 -19 -3 -27
-1 -24 7 2 7 13 11 23 9 18 -2 18 -2 2 8 -16 10 -17 14 -3 40 17 32 10 42 -20
29z"/>
<path d="M797 3553 c-3 -5 -4 -21 -3 -36 2 -15 -2 -35 -9 -44 -11 -14 -10 -19
4 -29 9 -7 13 -15 10 -18 -3 -3 -14 0 -24 8 -17 12 -18 17 -6 42 7 16 9 25 5
21 -4 -4 -14 3 -22 15 -10 17 -12 18 -7 4 3 -11 0 -24 -7 -29 -9 -6 -8 -7 5
-3 14 4 16 1 11 -18 -4 -18 0 -28 17 -39 24 -18 43 -13 35 9 -3 7 4 20 14 27
11 8 17 17 14 20 -4 3 -15 -4 -25 -16 -10 -12 -18 -17 -19 -10 0 6 5 15 11 18
5 4 8 12 6 18 -2 7 0 20 5 31 10 19 -4 46 -15 29z"/>
<path d="M183 3535 c2 -11 9 -19 15 -17 16 3 15 -4 -4 -33 -11 -18 -13 -29 -5
-43 10 -19 6 -32 -11 -32 -5 0 -7 4 -4 8 2 4 0 14 -5 22 -8 13 -11 12 -20 -2
-14 -25 -32 -23 -19 2 10 18 -1 60 -15 60 -8 0 0 -25 10 -32 7 -5 7 -10 0 -15
-5 -5 -11 -18 -11 -30 -1 -18 2 -21 16 -13 13 7 26 3 48 -14 18 -13 28 -26 24
-30 -4 -4 5 -2 21 5 30 14 31 17 16 39 -8 13 -9 12 -7 -4 2 -10 -3 -21 -10
-23 -8 -3 -10 2 -6 14 5 15 4 15 -5 3 -5 -8 -13 -11 -17 -7 -4 3 -1 13 6 22
10 12 10 18 0 30 -9 11 -8 20 10 45 19 27 18 32 -7 29 -4 0 -11 8 -15 18 -7
16 -8 16 -5 -2z"/>
<path d="M220 3538 c0 -4 7 -8 15 -8 8 0 15 4 15 8 0 5 -7 9 -15 9 -8 0 -15
-4 -15 -9z"/>
<path d="M336 3534 c-4 -10 -4 -15 0 -12 4 4 15 3 24 -2 13 -7 20 -6 23 5 4 9
1 12 -10 8 -8 -3 -18 0 -23 6 -5 9 -9 8 -14 -5z"/>
<path d="M1143 3527 c0 -12 1 -16 4 -9 8 19 22 14 20 -8 -1 -12 -7 -18 -14
-16 -7 3 -10 -1 -7 -9 5 -12 9 -12 28 1 21 13 25 12 50 -7 22 -17 24 -24 15
-35 -7 -8 -18 -13 -25 -10 -10 4 -11 0 -2 -19 6 -13 15 -22 19 -19 5 3 9 -2 9
-11 0 -9 -5 -13 -11 -9 -7 4 -7 -1 1 -16 8 -14 8 -26 2 -32 -10 -10 -27 35
-23 61 1 8 -2 10 -10 5 -9 -5 -10 -2 -6 9 4 11 2 14 -9 10 -9 -3 -14 1 -15 13
0 12 -3 14 -6 6 -3 -7 2 -21 11 -31 10 -11 14 -26 10 -37 -4 -14 -3 -15 4 -6
7 11 12 7 20 -16 6 -17 7 -34 4 -37 -4 -4 3 -1 16 6 17 11 21 20 17 39 -6 23
-6 24 13 7 10 -9 22 -14 25 -10 4 3 7 1 7 -5 0 -7 5 -12 11 -12 6 0 4 9 -5 21
-8 12 -12 29 -9 38 4 13 3 13 -7 -1 -14 -23 -26 -23 -33 1 -5 20 9 41 27 41 6
0 5 -5 -2 -12 -7 -7 -12 -16 -12 -21 0 -5 7 -1 16 8 26 25 1 44 -26 20 -11
-10 -23 -16 -26 -13 -3 3 5 14 18 24 l23 19 -27 27 c-16 15 -28 24 -28 21 0
-4 -10 3 -22 14 -36 31 -44 33 -45 10z"/>
<path d="M857 3522 c-20 -21 -22 -32 -6 -32 5 0 7 5 4 10 -3 6 -2 10 4 10 5 0
12 -6 15 -12 3 -7 3 -3 0 10 -5 22 10 31 19 12 3 -6 4 -5 3 2 -4 20 -21 20
-39 0z"/>
<path d="M765 3520 c3 -5 8 -10 11 -10 2 0 4 5 4 10 0 6 -5 10 -11 10 -5 0 -7
-4 -4 -10z"/>
<path d="M1087 3513 c5 -12 3 -14 -7 -8 -9 5 -11 4 -6 -3 10 -16 23 -15 29 2
3 8 0 17 -8 20 -10 3 -12 0 -8 -11z"/>
<path d="M915 3500 c7 -22 6 -23 -7 -12 -13 10 -17 10 -21 -3 -4 -9 -13 -12
-24 -8 -17 6 -17 6 -1 -10 19 -20 29 -22 26 -6 -2 6 3 14 10 16 6 3 10 -1 9
-9 -2 -7 -2 -10 0 -5 3 4 8 5 13 2 10 -6 6 43 -5 53 -4 4 -4 -4 0 -18z"/>
<path d="M1119 3508 c-1 -7 -1 -19 0 -25 1 -7 -4 -11 -11 -9 -7 1 -10 1 -5 -1
15 -9 6 -23 -13 -20 -22 4 -39 17 -21 17 7 0 9 5 5 11 -4 8 -10 6 -17 -6 -12
-21 5 -34 40 -30 17 2 27 -4 33 -19 4 -12 16 -28 26 -36 19 -14 19 -14 1 7
-11 12 -16 26 -13 31 3 6 -1 12 -9 16 -8 3 -15 11 -15 17 0 8 4 8 15 -1 8 -6
23 -9 34 -5 17 5 20 3 15 -12 -5 -14 -4 -15 4 -3 6 8 8 18 6 22 -3 4 0 8 5 8
6 0 11 -4 11 -10 0 -5 5 -10 12 -10 8 0 7 5 -3 16 -13 13 -20 13 -43 2 -25
-11 -30 -10 -41 6 -8 10 -11 24 -8 32 3 8 2 14 -1 14 -3 0 -7 -6 -7 -12z"/>
<path d="M707 3496 c-12 -9 -14 -16 -7 -21 12 -7 4 -25 -11 -25 -6 0 -7 6 -3
13 5 7 1 7 -12 -3 -10 -8 -21 -15 -23 -17 -2 -1 7 -1 20 0 30 2 82 27 57 27
-21 0 -23 11 -6 28 16 16 7 15 -15 -2z"/>
<path d="M1031 3484 c-17 -37 -8 -39 13 -4 9 17 13 30 8 30 -5 0 -14 -12 -21
-26z"/>
<path d="M470 3466 c0 -2 7 -6 15 -10 8 -3 15 -1 15 4 0 6 -7 10 -15 10 -8 0
-15 -2 -15 -4z"/>
<path d="M825 3449 c-4 -6 -4 -13 -1 -16 3 -4 6 -1 6 5 0 7 5 12 11 12 5 0 7
-5 3 -12 -4 -7 -3 -8 5 -4 12 8 6 26 -9 26 -5 0 -12 -5 -15 -11z"/>
<path d="M712 3437 c-12 -6 -22 -14 -22 -19 0 -13 18 -10 23 5 8 21 42 -7 40
-34 -1 -14 0 -17 3 -7 3 10 12 15 22 12 13 -4 12 -2 -3 10 -11 9 -25 22 -30
30 -7 10 -16 10 -33 3z"/>
<path d="M375 3430 c3 -5 8 -10 11 -10 2 0 4 5 4 10 0 6 -5 10 -11 10 -5 0 -7
-4 -4 -10z"/>
<path d="M660 3421 c0 -5 7 -17 16 -25 13 -14 13 -16 1 -16 -8 0 -18 7 -21 16
-3 8 -10 13 -15 10 -5 -4 -12 -1 -14 4 -3 6 -4 5 -2 -2 1 -7 8 -12 14 -10 15
3 14 -15 -1 -21 -7 -3 6 -4 30 -2 41 3 43 2 28 -14 -9 -10 -14 -25 -10 -35 6
-16 1 -18 -46 -18 -45 0 -48 2 -43 25 3 12 3 20 0 17 -3 -3 -7 -14 -9 -25 -1
-11 -7 -24 -13 -28 -5 -4 2 -5 17 -1 19 4 29 1 37 -13 10 -17 12 -17 25 0 7 9
19 17 25 17 8 0 7 -5 -3 -16 -18 -18 -21 -34 -5 -34 5 0 8 4 5 9 -4 5 6 19 21
30 20 15 22 19 8 14 -19 -6 -19 -6 -2 14 10 11 15 27 11 37 -3 9 -1 16 5 16 6
0 11 -4 11 -10 0 -5 6 -10 13 -10 6 1 1 10 -12 20 -21 18 -20 25 2 21 4 0 7 4
7 9 0 13 -13 13 -28 -2 -8 -8 -15 -8 -26 2 -9 7 -13 16 -10 21 3 5 0 9 -5 9
-6 0 -11 -4 -11 -9z m50 -81 c0 -5 -4 -10 -10 -10 -5 0 -10 5 -10 10 0 6 5 10
10 10 6 0 10 -4 10 -10z m-60 -50 c0 -5 -2 -10 -4 -10 -3 0 -8 5 -11 10 -3 6
-1 10 4 10 6 0 11 -4 11 -10z"/>
<path d="M140 3385 c7 -8 16 -12 21 -9 5 3 9 0 9 -5 0 -6 5 -11 11 -11 8 0 8
5 -1 15 -7 8 -16 12 -21 9 -5 -3 -9 0 -9 5 0 6 -5 11 -11 11 -8 0 -8 -5 1 -15z"/>
<path d="M118 3380 c13 -16 17 -34 4 -26 -4 2 -8 -4 -8 -15 0 -10 4 -19 8 -19
4 0 8 7 8 15 0 22 13 18 40 -10 26 -28 17 -34 -12 -8 -10 9 -18 11 -18 6 0 -6
8 -14 17 -17 12 -5 14 -9 5 -18 -7 -7 -12 -16 -12 -22 0 -5 6 -2 13 9 9 11 19
15 27 10 9 -5 11 -4 6 3 -4 7 -1 12 9 12 9 0 14 -4 11 -9 -3 -5 1 -12 10 -15
22 -8 22 -8 34 17 11 21 10 21 -4 3 -9 -11 -19 -16 -23 -12 -5 4 2 16 13 25
18 14 20 21 10 38 -10 19 -13 20 -30 7 -14 -10 -16 -14 -5 -14 12 0 12 -2 -1
-11 -13 -9 -13 -10 0 -6 8 2 14 10 12 16 -1 6 2 11 8 11 13 0 13 -23 -1 -37
-17 -17 -51 -4 -44 18 4 11 2 19 -5 19 -6 0 -8 -4 -5 -10 3 -5 2 -10 -4 -10
-5 0 -11 3 -13 8 -2 4 -17 18 -33 32 -17 14 -24 18 -17 10z"/>
<path d="M605 3380 c-3 -5 -1 -10 4 -10 6 0 11 5 11 10 0 6 -2 10 -4 10 -3 0
-8 -4 -11 -10z"/>
<path d="M1301 3381 c0 -8 6 -22 14 -31 14 -15 14 -19 1 -29 -11 -9 -20 -10
-35 -1 -14 7 -21 7 -21 0 0 -5 7 -10 15 -10 8 0 15 -5 15 -11 0 -5 -4 -8 -9
-5 -4 3 -18 -5 -30 -18 -20 -21 -20 -24 -5 -30 9 -4 19 -4 22 -1 3 3 0 5 -6 5
-7 0 -12 5 -12 11 0 6 7 9 14 6 10 -4 13 -1 10 8 -4 10 2 13 28 10 23 -3 28
-2 18 5 -8 5 -12 12 -8 15 3 4 16 -4 28 -17 21 -21 22 -21 12 -2 -6 12 -8 24
-4 28 3 4 -2 4 -13 0 -17 -7 -18 -6 -7 8 9 11 10 18 2 23 -6 3 -7 11 -4 17 4
6 2 8 -4 4 -6 -3 -13 2 -15 11 -3 11 -5 13 -6 4z"/>
<path d="M614 3340 c0 -11 4 -20 8 -20 4 0 8 9 8 20 0 11 -4 20 -8 20 -4 0 -8
-9 -8 -20z"/>
<path d="M647 3345 c-6 -15 10 -32 20 -21 4 3 1 6 -7 6 -10 0 -10 3 0 15 7 9
8 15 2 15 -5 0 -12 -7 -15 -15z"/>
<path d="M1232 3298 c-7 -7 -12 -16 -12 -21 0 -5 7 -1 16 8 9 9 14 18 12 20
-2 3 -10 -1 -16 -7z"/>
<path d="M126 3291 c-17 -6 -17 -8 -4 -14 10 -3 19 0 22 9 3 8 4 14 3 13 -1 0
-11 -4 -21 -8z"/>
<path d="M595 3280 c-3 -5 -12 -7 -18 -3 -7 4 -5 -2 3 -12 14 -17 13 -18 -2
-12 -13 4 -15 2 -11 -10 5 -12 3 -14 -8 -8 -11 7 -12 6 -2 -6 10 -12 10 -18 0
-29 -10 -12 -9 -12 6 -1 15 12 20 11 38 -5 11 -10 28 -31 37 -46 9 -16 21 -28
26 -28 5 0 2 8 -7 18 -23 26 -21 39 2 18 20 -18 42 -14 40 7 0 9 -2 9 -6 0 -9
-23 -20 -14 -20 17 0 31 11 40 20 18 4 -10 6 -10 6 -1 2 21 -20 26 -38 9 -10
-9 -21 -13 -24 -9 -10 10 -8 25 2 19 5 -3 14 1 21 9 9 10 9 15 1 15 -6 0 -11
-3 -11 -7 0 -5 -18 -8 -40 -9 -36 0 -38 1 -25 16 8 9 12 20 8 25 -5 4 -1 5 7
3 8 -3 14 -11 13 -17 -2 -6 2 -11 7 -11 14 0 12 11 -4 33 -9 12 -16 14 -21 7z
m33 -81 c19 -30 9 -33 -16 -4 -13 15 -17 25 -9 25 7 0 18 -9 25 -21z m42 -19
c0 -5 -4 -10 -10 -10 -5 0 -10 5 -10 10 0 6 5 10 10 10 6 0 10 -4 10 -10z"/>
<path d="M153 3243 c-16 -20 -19 -30 -10 -35 17 -11 27 -10 27 3 0 5 -4 7 -10
4 -5 -3 -10 -1 -10 4 0 6 3 11 8 11 4 0 13 9 20 20 18 29 1 24 -25 -7z"/>
<path d="M192 3250 c-17 -28 -15 -39 3 -13 10 14 22 20 33 17 14 -5 15 -4 2 5
-20 15 -23 14 -38 -9z"/>
<path d="M690 3259 c0 -5 5 -7 10 -4 6 3 10 8 10 11 0 2 -4 4 -10 4 -5 0 -10
-5 -10 -11z"/>
<path d="M1290 3261 c0 -5 -7 -17 -16 -25 -8 -9 -11 -16 -5 -16 6 0 11 -5 11
-12 0 -6 -3 -8 -7 -5 -11 12 -44 -53 -38 -74 5 -15 3 -18 -12 -12 -10 3 -15 3
-12 -1 4 -4 16 -8 27 -11 19 -3 20 -1 9 22 -9 21 -8 27 6 38 9 6 14 15 10 18
-3 4 -1 7 5 7 5 0 13 -6 15 -12 3 -7 4 1 3 19 -2 18 3 42 11 53 8 12 10 20 4
20 -6 0 -11 -4 -11 -9z"/>
<path d="M1312 3250 c-17 -28 -15 -39 3 -13 10 14 22 20 33 17 14 -5 15 -4 2
5 -20 15 -23 14 -38 -9z"/>
<path d="M125 3252 c-5 -4 -12 -16 -13 -27 -4 -23 0 -20 17 13 12 24 12 26 -4
14z"/>
<path d="M205 3229 c-8 -12 22 -49 39 -49 6 0 4 5 -4 10 -13 9 -13 11 0 21 12
8 10 9 -7 4 -24 -7 -33 9 -10 18 9 4 9 6 0 6 -6 1 -15 -4 -18 -10z"/>
<path d="M1325 3229 c-4 -5 1 -19 11 -30 16 -18 16 -20 -1 -39 -18 -20 -18
-21 2 -41 16 -17 22 -18 28 -8 5 8 5 11 0 7 -9 -8 -40 20 -31 29 3 3 12 1 19
-5 10 -9 14 -8 14 3 0 8 -4 12 -9 9 -4 -3 -8 0 -8 5 0 6 4 11 8 11 5 0 9 7 9
15 0 8 -4 12 -9 9 -4 -3 -8 -1 -8 5 0 5 6 12 13 15 6 3 2 3 -10 0 -24 -6 -32
11 -10 19 9 4 9 6 0 6 -6 1 -15 -4 -18 -10z"/>
<path d="M1220 3221 c-8 -6 -18 -7 -22 -5 -4 3 -8 0 -8 -5 0 -14 6 -14 31 -1
13 8 19 7 19 0 0 -6 -7 -13 -15 -16 -8 -4 -12 -10 -9 -15 3 -5 -4 -9 -15 -9
-12 0 -21 -4 -21 -9 0 -19 36 -4 53 22 26 42 21 59 -13 38z"/>
<path d="M718 3213 c7 -3 16 -2 19 1 4 3 -2 6 -13 5 -11 0 -14 -3 -6 -6z"/>
<path d="M770 3212 c0 -7 -3 -11 -7 -11 -21 3 -31 -3 -29 -18 2 -36 27 -36 56
-2 23 27 31 32 41 22 7 -7 14 -22 16 -34 3 -18 1 -20 -12 -9 -10 9 -15 9 -15
1 0 -11 13 -15 38 -12 13 2 17 -15 5 -22 -5 -2 -2 -2 6 0 9 2 11 -3 7 -14 -4
-12 0 -10 10 5 20 27 34 28 68 1 19 -15 24 -16 20 -5 -3 9 -10 16 -16 16 -5 0
-6 5 -2 12 5 7 15 2 31 -18 16 -20 22 -23 17 -9 -7 20 -7 20 15 1 17 -16 21
-16 16 -4 -4 9 -1 18 7 21 7 2 3 2 -9 0 -16 -2 -23 2 -24 14 -2 22 -1 24 4 43
2 8 2 12 0 8 -8 -13 -25 -9 -20 5 7 17 -35 16 -56 -2 -10 -7 -16 -21 -16 -30
1 -13 2 -13 6 2 2 9 7 17 9 17 13 0 44 -22 44 -30 0 -12 -22 -9 -33 5 -5 6 -6
2 -3 -8 5 -15 2 -17 -15 -12 -11 4 -26 1 -34 -5 -10 -8 -15 -9 -15 -2 0 6 6
15 13 19 14 9 19 43 6 43 -5 0 -9 -9 -9 -19 0 -39 -30 -32 -37 8 -2 14 -21 31
-35 31 -10 0 -48 -42 -48 -52 0 -4 -4 -8 -10 -8 -5 0 -10 9 -10 21 0 11 4 18
9 14 11 -6 26 13 17 22 -3 4 -6 1 -6 -5z m215 -22 c10 -11 14 -20 9 -20 -12 1
-44 25 -44 34 0 12 17 6 35 -14z m15 -46 c0 -8 -5 -12 -10 -9 -6 4 -8 11 -5
16 9 14 15 11 15 -7z"/>
<path d="M860 3211 c0 -6 4 -13 10 -16 6 -3 7 1 4 9 -7 18 -14 21 -14 7z"/>
<path d="M908 3213 c7 -3 16 -2 19 1 4 3 -2 6 -13 5 -11 0 -14 -3 -6 -6z"/>
<path d="M1032 3203 c0 -10 -3 -27 -7 -38 -5 -14 -4 -16 3 -6 7 10 11 10 17 1
5 -8 11 -5 22 9 8 12 19 21 25 21 6 0 3 -9 -6 -19 -11 -13 -15 -27 -11 -40 5
-17 3 -20 -12 -14 -10 3 -15 3 -12 -1 4 -4 16 -8 27 -11 19 -3 20 -1 9 22 -9
21 -8 27 8 39 18 14 18 15 -5 36 -17 16 -22 18 -17 6 6 -18 -19 -46 -30 -34
-4 4 -1 11 6 15 7 5 10 14 7 20 -11 17 -25 13 -24 -6z"/>
<path d="M1101 3209 c7 -4 16 -6 20 -4 3 3 14 -4 24 -15 17 -19 9 -28 -11 -12
-5 4 -1 0 8 -10 10 -9 18 -21 18 -28 0 -7 -6 -5 -16 4 -17 18 -24 19 -42 8 -9
-6 -7 -14 8 -30 20 -21 30 -27 30 -18 0 3 -7 12 -16 21 -9 9 -13 19 -9 23 4 4
16 -4 27 -17 21 -27 60 -37 51 -14 -3 8 2 13 13 14 12 0 14 3 6 6 -7 3 -21 -2
-32 -12 -17 -16 -18 -15 -15 17 2 18 5 40 8 48 2 8 2 12 0 8 -8 -13 -25 -9
-20 5 3 8 -7 12 -30 13 -22 1 -30 -2 -22 -7z"/>
<path d="M180 3202 c0 -6 6 -12 13 -15 6 -2 9 -8 5 -12 -4 -4 -13 -3 -20 1 -7
5 -17 9 -23 10 -5 1 -19 5 -30 9 -19 6 -19 6 -2 -5 11 -7 24 -13 30 -15 29 -6
47 -18 47 -32 0 -12 -2 -12 -16 1 -18 18 -34 21 -34 5 0 -5 4 -8 9 -5 5 3 14
-1 22 -10 10 -12 9 -18 -4 -31 -9 -9 -20 -13 -24 -9 -4 4 -1 11 7 16 8 5 11
12 7 16 -4 4 -14 -1 -21 -12 -11 -14 -11 -21 -3 -26 17 -11 24 -10 41 8 9 8
16 11 16 5 0 -6 5 -11 11 -11 5 0 7 5 4 10 -3 6 -2 10 4 10 5 0 12 -6 15 -12
3 -7 3 -3 0 10 -3 14 -1 22 7 22 7 0 9 3 6 7 -4 3 -16 -2 -26 -11 -19 -17 -19
-16 -15 22 2 27 -1 44 -11 52 -9 8 -15 8 -15 2z"/>
<path d="M1300 3203 c0 -6 6 -14 13 -17 10 -5 10 -7 0 -12 -7 -3 -13 -11 -13
-17 0 -6 8 -4 17 6 16 16 16 18 0 34 -9 10 -17 12 -17 6z"/>
<path d="M712 3180 c0 -14 2 -19 5 -12 2 6 2 18 0 25 -3 6 -5 1 -5 -13z"/>
<path d="M575 3182 c28 -20 37 -42 25 -57 -10 -12 -10 -18 0 -30 7 -9 10 -19
6 -22 -4 -4 -11 -1 -16 7 -6 9 -10 10 -10 3 0 -23 22 -25 46 -2 30 28 32 14 2
-18 -12 -13 -17 -23 -12 -23 5 0 18 14 29 30 11 16 24 30 28 30 8 0 -1 -18
-31 -60 -9 -13 -12 -21 -5 -17 6 4 14 3 18 -3 3 -5 11 -10 18 -10 6 0 2 6 -9
14 -18 14 -18 16 -2 32 17 17 19 17 34 -1 15 -18 15 -18 0 7 -15 26 -15 28 3
38 11 5 28 7 38 4 17 -5 17 -5 1 6 -11 6 -25 7 -35 3 -27 -13 -53 -10 -63 7
-9 13 -10 13 -11 0 -1 -8 -1 -18 0 -22 0 -5 -3 -8 -7 -8 -17 0 -21 13 -11 32
12 22 -12 68 -34 68 -7 0 -8 -3 -2 -8z"/>
<path d="M790 3160 c-12 -16 -17 -30 -11 -30 6 0 11 6 11 13 1 6 9 2 19 -10
10 -12 21 -20 24 -16 4 3 -3 13 -15 22 -19 16 -19 18 -3 34 9 9 12 17 6 17 -5
0 -19 -13 -31 -30z"/>
<path d="M110 3166 c0 -2 7 -6 15 -10 8 -3 15 -1 15 4 0 6 -7 10 -15 10 -8 0
-15 -2 -15 -4z"/>
<path d="M220 3160 c0 -5 7 -7 15 -4 8 4 15 8 15 10 0 2 -7 4 -15 4 -8 0 -15
-4 -15 -10z"/>
<path d="M560 3160 c-13 -8 -12 -10 3 -10 9 0 17 -4 17 -10 0 -5 -8 -10 -17
-10 -15 0 -16 -2 -3 -10 10 -6 17 -5 23 5 12 22 -5 46 -23 35z"/>
<path d="M1262 3152 c-9 -6 -7 -14 8 -30 24 -26 32 -28 24 -7 -4 8 -10 15 -15
15 -5 0 -9 5 -9 11 0 5 5 7 10 4 6 -3 10 -1 10 4 0 13 -10 14 -28 3z"/>
<path d="M113 3133 c1 -26 12 -30 21 -7 3 8 2 13 -3 9 -5 -3 -11 1 -14 7 -3 7
-4 3 -4 -9z"/>
<path d="M696 3135 c-11 -8 -15 -15 -10 -15 6 0 15 5 21 11 9 9 19 7 40 -7 31
-21 63 -27 63 -12 0 5 -8 7 -18 4 -12 -4 -26 1 -37 14 -21 24 -33 25 -59 5z"/>
<path d="M1300 3133 c0 -6 8 -17 18 -24 16 -13 16 -13 2 6 -8 11 -16 22 -17
24 -2 2 -3 0 -3 -6z"/>
<path d="M907 3118 c-3 -8 5 -14 20 -14 13 -1 23 -1 21 0 -2 1 -10 7 -19 14
-13 10 -18 10 -22 0z"/>
<path d="M134 3055 c14 -13 26 -29 26 -35 0 -7 -7 -5 -16 4 -8 9 -21 16 -27
16 -7 0 -4 -5 5 -11 28 -16 40 -46 28 -69 -6 -11 -15 -20 -21 -20 -6 0 -6 7 1
20 10 18 -1 60 -15 60 -8 0 0 -25 10 -32 7 -5 7 -10 0 -15 -5 -5 -11 -18 -11
-30 -1 -18 2 -21 16 -13 19 10 50 -14 35 -28 -4 -4 -10 -1 -12 6 -3 6 -9 12
-15 12 -6 0 -6 -6 2 -15 8 -10 25 -13 52 -11 l40 4 -19 -21 c-9 -12 -24 -27
-31 -34 -7 -6 -9 -14 -4 -17 5 -3 15 6 22 19 7 14 17 25 22 25 5 0 6 -4 3 -10
-3 -5 -1 -10 5 -10 7 0 9 8 5 21 -6 16 -4 20 6 13 12 -6 12 -5 1 8 -7 9 -9 18
-5 20 4 3 2 3 -6 1 -17 -4 -43 16 -35 28 3 5 0 9 -5 9 -16 0 -13 -16 5 -34 13
-14 13 -16 1 -16 -15 0 -27 19 -33 52 -2 10 2 16 9 14 6 -1 9 -1 5 1 -13 7 -9
24 5 22 24 -3 37 1 37 12 0 8 -5 8 -15 -1 -8 -7 -15 -8 -15 -3 0 12 45 55 51
49 3 -3 5 3 5 13 0 10 -8 17 -21 18 -11 1 -14 -1 -7 -4 16 -6 16 -24 0 -22
-25 3 -38 -1 -38 -12 0 -8 5 -8 15 1 25 20 17 -5 -9 -29 l-24 -22 3 32 c1 18
11 38 21 46 10 7 13 13 7 13 -6 0 -16 -7 -23 -15 -13 -16 -35 -21 -26 -6 3 5
-1 12 -10 15 -27 11 -28 7 0 -19z"/>
<path d="M572 3054 c10 -10 20 -16 22 -13 3 3 -5 11 -17 18 -21 13 -21 12 -5
-5z"/>
<path d="M670 3044 c0 -7 27 -34 34 -34 13 0 5 16 -14 28 -11 7 -20 10 -20 6z"/>
<path d="M234 3012 c3 -15 -3 -27 -17 -37 -12 -8 -17 -15 -11 -15 22 0 42 34
33 55 -9 18 -9 18 -5 -3z"/>
<path d="M575 3020 c3 -5 8 -10 11 -10 2 0 4 5 4 10 0 6 -5 10 -11 10 -5 0 -7
-4 -4 -10z"/>
<path d="M605 3021 c3 -6 -3 -14 -12 -20 -17 -10 -17 -10 0 -11 9 0 17 2 17 4
0 2 3 11 6 20 3 9 1 16 -6 16 -6 0 -9 -4 -5 -9z"/>
<path d="M6440 3007 c-115 -29 -138 -183 -37 -246 65 -40 153 -17 189 50 58
107 -34 226 -152 196z"/>
<path d="M623 2996 c-4 -7 -15 -15 -23 -18 -8 -3 6 -5 32 -5 26 0 51 -2 54 -6
4 -3 -3 -22 -15 -42 -11 -20 -21 -39 -21 -43 0 -4 5 1 11 10 9 16 12 17 37 2
25 -15 26 -14 6 1 -14 10 -20 23 -17 36 6 20 18 25 28 9 3 -5 12 -7 20 -3 10
3 14 0 12 -8 -2 -8 -2 -11 0 -6 10 16 24 6 18 -14 -7 -20 -6 -20 14 -2 22 18
26 24 14 21 -5 -1 -22 5 -39 15 -17 9 -34 14 -36 11 -3 -2 -11 3 -18 11 -12
14 -10 15 13 11 15 -3 27 0 27 5 0 5 -3 9 -7 10 -5 0 -18 2 -30 3 -12 1 -20
-1 -17 -6 3 -4 -2 -8 -11 -8 -9 0 -14 4 -11 9 3 5 -1 12 -10 15 -21 8 -22 8
-31 -8z m27 -6 c0 -5 -4 -10 -10 -10 -5 0 -10 5 -10 10 0 6 5 10 10 10 6 0 10
-4 10 -10z"/>
<path d="M1199 2963 c-13 -17 -13 -17 6 -3 11 8 22 16 24 17 2 2 0 3 -6 3 -6
0 -17 -8 -24 -17z"/>
<path d="M1233 2958 c-27 -13 -29 -26 -8 -34 8 -4 15 -13 15 -22 0 -10 -9 -6
-27 14 -15 16 -24 21 -20 12 4 -12 -1 -23 -16 -33 -12 -8 -16 -15 -10 -15 6 0
16 7 23 15 10 12 16 13 27 4 7 -7 12 -17 10 -23 -3 -6 0 -19 4 -28 7 -12 4
-20 -8 -27 -10 -6 -13 -11 -7 -11 16 0 35 25 32 40 -2 7 3 15 10 17 8 3 10 -2
6 -14 -5 -14 -4 -15 4 -4 6 8 8 20 5 28 -3 7 2 13 12 13 10 0 13 -5 9 -12 -4
-7 -3 -8 4 -4 15 9 3 38 -12 29 -6 -3 -18 -12 -28 -20 -15 -13 -16 -11 -13 21
3 28 0 34 -12 29 -11 -4 -14 -2 -9 5 4 7 14 12 22 12 8 0 14 5 14 10 0 12 1
12 -27 -2z"/>
<path d="M220 2950 c-8 -5 -11 -12 -8 -16 4 -3 14 1 23 10 18 17 9 21 -15 6z"/>
<path d="M617 2940 c3 -11 7 -20 9 -20 2 0 4 9 4 20 0 11 -4 20 -9 20 -5 0 -7
-9 -4 -20z"/>
<path d="M649 2953 c-1 -5 -1 -12 0 -17 1 -4 -4 -16 -11 -25 -12 -14 -11 -15
5 -2 10 8 16 20 13 27 -3 7 0 15 7 18 9 3 9 5 0 5 -7 1 -14 -2 -14 -6z"/>
<path d="M1294 2942 c5 -8 0 -12 -13 -12 -12 0 -21 -4 -21 -9 0 -11 38 -3 45
10 3 4 0 11 -6 15 -8 4 -9 3 -5 -4z"/>
<path d="M700 2921 c0 -5 7 -11 15 -15 8 -3 15 -1 15 3 0 5 -7 11 -15 15 -8 3
-15 1 -15 -3z"/>
<path d="M1153 2913 c-24 -16 -30 -33 -12 -33 5 0 8 4 4 9 -3 5 4 12 15 16 11
3 20 11 20 16 0 11 0 11 -27 -8z"/>
<path d="M1310 2909 c0 -5 5 -7 10 -4 6 3 10 8 10 11 0 2 -4 4 -10 4 -5 0 -10
-5 -10 -11z"/>
<path d="M118 2900 c6 -8 12 -18 12 -23 0 -4 -6 -5 -12 -1 -9 5 -9 2 1 -9 9
-11 10 -17 2 -17 -6 0 -11 -5 -11 -11 0 -6 9 -4 21 5 12 8 27 12 34 10 7 -3
15 2 18 10 4 9 2 16 -3 16 -6 0 -10 -5 -10 -12 0 -6 -15 1 -32 18 -18 16 -27
22 -20 14z"/>
<path d="M789 2899 c-11 -7 -10 -9 5 -9 12 0 16 -5 12 -16 -3 -9 -6 -18 -6
-20 0 -3 -5 -2 -11 2 -7 4 -4 -7 7 -25 10 -17 23 -31 28 -31 5 0 2 8 -7 18
-23 26 -21 39 2 18 20 -18 42 -14 40 7 0 9 -2 9 -6 0 -2 -7 -9 -13 -15 -13 -6
0 -7 7 -4 16 9 23 -27 65 -45 53z m41 -39 c0 -5 -4 -10 -10 -10 -5 0 -10 5
-10 10 0 6 5 10 10 10 6 0 10 -4 10 -10z"/>
<path d="M845 2880 c27 -32 32 -34 46 -20 21 20 15 27 -8 9 -15 -12 -16 -12
-10 4 4 11 3 16 -4 12 -6 -4 -20 1 -32 12 -12 10 -8 2 8 -17z"/>
<path d="M736 2892 c-3 -5 1 -12 9 -16 8 -3 12 -12 9 -20 -3 -8 -1 -17 5 -21
13 -7 15 -25 3 -25 -5 0 -13 9 -18 20 -7 14 -13 17 -24 10 -13 -8 -12 -10 3
-10 10 0 16 -4 13 -9 -8 -12 25 -24 37 -12 5 5 5 17 -2 29 -9 17 -8 23 6 32
17 11 17 11 1 6 -10 -3 -21 2 -26 11 -6 9 -12 12 -16 5z"/>
<path d="M670 2881 c0 -6 5 -11 11 -11 5 0 8 -4 5 -9 -7 -11 42 -7 52 4 4 5 0
6 -9 2 -9 -3 -26 1 -38 9 -12 9 -21 11 -21 5z"/>
<path d="M1075 2878 c-11 -6 -23 -16 -27 -22 -5 -8 -8 -7 -8 2 0 6 -5 12 -11
12 -5 0 -8 -4 -5 -9 4 -5 3 -11 -1 -14 -5 -2 -2 -2 5 0 8 1 12 -2 10 -8 -2 -6
-7 -10 -11 -10 -4 1 -14 1 -23 1 -11 0 -14 6 -10 23 3 12 3 16 0 10 -3 -7 -10
-13 -15 -13 -6 0 -8 4 -5 8 3 5 -2 9 -10 9 -11 0 -9 -6 7 -23 l20 -22 -32 3
c-18 1 -38 10 -44 18 -7 9 -15 14 -18 11 -3 -4 4 -15 16 -25 25 -20 17 -25
-12 -7 -14 9 -23 8 -42 -5 -13 -10 -19 -17 -13 -17 5 0 15 5 21 11 8 8 17 8
32 0 15 -9 27 -9 41 -1 14 8 26 8 41 -1 15 -8 19 -8 15 0 -4 6 0 11 9 11 9 0
14 -4 10 -9 -3 -5 4 -12 15 -16 20 -7 28 -25 10 -25 -19 0 -10 -16 9 -17 30
-2 48 24 32 49 -9 14 -9 23 -1 33 9 11 23 56 17 55 -1 0 -11 -6 -22 -12z m0
-32 c-13 -19 -14 -29 -5 -46 11 -21 6 -40 -11 -40 -6 0 -8 4 -5 9 8 13 -4 42
-15 35 -15 -9 -10 6 12 37 25 35 46 39 24 5z"/>
<path d="M1110 2885 c0 -23 17 -34 49 -30 28 4 31 2 21 -11 -8 -8 -22 -12 -34
-9 -12 3 -15 2 -8 -1 20 -10 13 -21 -13 -21 -14 0 -25 3 -25 8 0 5 5 9 11 9 5
0 7 5 3 11 -10 16 -26 -15 -18 -35 5 -13 9 -14 20 -5 10 8 14 8 14 1 0 -6 -8
-16 -17 -21 -16 -9 -13 -11 12 -11 3 0 5 3 6 8 1 13 42 52 53 51 24 -3 36 2
36 12 0 8 -4 8 -14 -1 -12 -9 -15 -8 -13 9 1 12 5 21 9 21 4 0 8 5 8 11 0 8
-4 8 -15 -1 -22 -19 -64 -19 -75 -1 -5 9 -9 12 -10 6z"/>
<path d="M927 2874 c-8 -8 3 -34 15 -34 7 0 6 5 -1 13 -6 8 -8 17 -4 20 3 4 4
7 1 7 -2 0 -7 -3 -11 -6z"/>
<path d="M132 2822 l-21 -19 29 0 c17 0 30 4 30 9 0 5 -5 6 -12 2 -8 -5 -9 -2
-5 9 8 22 5 21 -21 -1z"/>
<path d="M209 2828 c-1 -7 -1 -19 0 -25 1 -7 -3 -13 -9 -13 -5 0 -10 5 -10 12
0 6 -2 9 -5 6 -9 -8 5 -36 21 -42 9 -3 12 -2 9 5 -4 6 1 19 11 30 17 19 17 20
-2 13 -17 -7 -17 -6 -5 9 9 11 10 17 2 17 -6 0 -12 -6 -12 -12z"/>
<path d="M786 2794 c-4 -10 -4 -15 0 -11 4 4 12 3 18 -3 7 -5 17 -5 26 2 12 8
12 9 -2 4 -10 -3 -21 1 -26 11 -8 13 -10 13 -16 -3z"/>
<path d="M1162 2798 c-7 -7 -12 -16 -12 -21 0 -5 7 -2 15 7 9 8 23 13 33 10
14 -5 15 -4 2 5 -19 14 -23 14 -38 -1z"/>
<path d="M234 2789 c-3 -6 -2 -15 3 -20 5 -5 9 -1 9 11 0 23 -2 24 -12 9z"/>
<path d="M850 2780 c-13 -11 -18 -20 -12 -20 6 0 18 7 26 15 12 13 20 14 38 5
22 -11 22 -10 4 4 -25 20 -28 20 -56 -4z"/>
<path d="M941 2791 c-9 -6 -10 -14 -4 -26 12 -21 21 -21 38 2 10 13 10 20 2
25 -15 10 -19 10 -36 -1z m29 -11 c0 -5 -7 -10 -16 -10 -8 0 -12 5 -9 10 3 6
10 10 16 10 5 0 9 -4 9 -10z"/>
<path d="M138 2778 c18 -18 42 -19 35 -1 -5 12 -7 12 -14 1 -7 -10 -9 -10 -9
0 0 6 -5 12 -12 12 -9 0 -9 -3 0 -12z"/>
<path d="M1005 2780 c3 -5 2 -10 -3 -10 -6 0 -12 -6 -15 -13 -3 -7 2 -13 12
-13 10 0 17 9 17 23 1 13 -2 23 -8 23 -5 0 -6 -4 -3 -10z"/>
<path d="M876 2762 c-3 -5 1 -9 9 -9 8 0 15 4 15 9 0 4 -4 8 -9 8 -6 0 -12 -4
-15 -8z"/>
<path d="M915 2750 c3 -5 8 -10 11 -10 2 0 4 5 4 10 0 6 -5 10 -11 10 -5 0 -7
-4 -4 -10z"/>
</g>
</svg>
